# xmcd CD database file
#
# Track frame offsets:
#	150
#	12807
#	24507
#	39185
#	53317
#	68250
#	82137
#	96987
#	112195
#	126665
#	140977
#	154067
#	166530
#	181187
#	194697
#	208562
#	228390
#
# Disc length: 3227 seconds
#
# Revision: 0
# Processed by: cddbd v1.5.2PL0 Copyright (c) Steve Scherf et al.
# Submitted via: CDex 1.51
#
DISCID=e00c9911
DTITLE=Louis Armstrong - Jazz
DYEAR=1994
DGENRE=Jazz
TTITLE0=London (Cafe) Blues
TTITLE1=Everybody Loves My Baby
TTITLE2=Cold In Hand Blues
TTITLE3=Cornet Chop Suey
TTITLE4=Wild Man Blues
TTITLE5=Potato Head Blues
TTITLE6=West End Blues
TTITLE7=I Can't Give You Anything But Love, Baby
TTITLE8=Mahogany Hall Stomp
TTITLE9=I'm A Ding Dong Daddy (From Dumas)
TTITLE10=Swing That Music
TTITLE11=(My) Darling Nelly Gray
TTITLE12=Savoy Blues
TTITLE13=Perdido Street Blues
TTITLE14=I Want A Little Girl
TTITLE15=Back o'Town Blues
TTITLE16=Jack-Armstrong Blues
EXTD=YEAR: 1994
EXTT0=
EXTT1=
EXTT2=
EXTT3=
EXTT4=
EXTT5=
EXTT6=
EXTT7=
EXTT8=
EXTT9=
EXTT10=
EXTT11=
EXTT12=
EXTT13=
EXTT14=
EXTT15=
EXTT16=
PLAYORDER=
